<svg width="30" height="29" viewBox="0 0 30 29" fill="none" xmlns="http://www.w3.org/2000/svg">
<g id="IG">
<ellipse id="Oval" cx="15.2932" cy="14.4392" rx="14.7067" ry="14.4187" fill="white"/>
<path id="instagram" fill-rule="evenodd" clip-rule="evenodd" d="M15.8104 10.1985C14.4943 10.1985 14.3304 10.204 13.8129 10.2278C12.0527 10.3069 11.0757 11.264 10.9949 12.9897C10.9715 13.4971 10.9659 13.6586 10.9659 14.9482C10.9659 16.2385 10.9715 16.4 10.9949 16.9066C11.0757 18.6315 12.0527 19.5902 13.8129 19.6693C14.3304 19.6923 14.4943 19.6978 15.8104 19.6978C17.1265 19.6978 17.2912 19.6923 17.8088 19.6693C19.5658 19.5902 20.5468 18.6331 20.6259 16.9066C20.6493 16.4 20.655 16.2385 20.655 14.9482C20.655 13.6586 20.6493 13.4971 20.6259 12.9897C20.5468 11.2664 19.569 10.3061 17.8088 10.2278C17.2912 10.204 17.1265 10.1985 15.8104 10.1985ZM15.814 11.0549C17.1075 11.0549 17.2609 11.0597 17.772 11.0826C19.0857 11.1412 19.6978 11.7515 19.7583 13.0292C19.7809 13.5303 19.7858 13.6799 19.7858 14.9481C19.7858 16.2163 19.7809 16.3667 19.7583 16.867C19.6978 18.1438 19.0865 18.7558 17.772 18.8143C17.2609 18.8365 17.1083 18.842 15.814 18.842C14.5205 18.842 14.3671 18.8373 13.8568 18.8143C12.5407 18.755 11.9311 18.1423 11.8706 16.867C11.8479 16.3667 11.8423 16.2163 11.8423 14.9481C11.8423 13.6799 11.8479 13.5295 11.8706 13.0292C11.9303 11.7507 12.5423 11.1404 13.8568 11.0818C14.3671 11.0589 14.5205 11.0549 15.814 11.0549ZM13.3224 14.9481C13.3224 13.6008 14.4366 12.5091 15.81 12.5091C17.1835 12.5091 18.2977 13.6016 18.2977 14.9481C18.2977 16.2955 17.1835 17.3872 15.81 17.3872C14.4366 17.3872 13.3224 16.2955 13.3224 14.9481ZM15.8127 16.5313C14.9205 16.5313 14.1978 15.8228 14.1978 14.9481C14.1978 14.0741 14.9205 13.3648 15.8127 13.3648C16.7041 13.3648 17.4284 14.0733 17.4284 14.9481C17.4284 15.8228 16.7041 16.5313 15.8127 16.5313ZM17.8169 12.4132C17.8169 12.0982 18.0775 11.8434 18.3978 11.8434C18.7197 11.8434 18.9794 12.0982 18.9794 12.4132C18.9794 12.7281 18.7188 12.9829 18.3978 12.9829C18.0767 12.9829 17.8169 12.7273 17.8169 12.4132Z" fill="#40444D"/>
</g>
</svg>
