<svg width="30" height="29" viewBox="0 0 30 29" fill="none" xmlns="http://www.w3.org/2000/svg">
<g id="Twitter">
<ellipse id="Oval" cx="15.173" cy="14.4392" rx="14.7067" ry="14.4187" fill="white"/>
<path id="twitter" d="M20.0741 11.7014C19.7138 11.8605 19.3257 11.9676 18.9188 12.0163C19.3347 11.7688 19.6525 11.3775 19.8036 10.9108C19.4147 11.1397 18.9841 11.3061 18.5258 11.3954C18.1597 11.0066 17.636 10.7639 17.0584 10.7639C15.7593 10.7639 14.805 11.9676 15.0983 13.2176C13.4274 13.134 11.9445 12.3386 10.9526 11.13C10.4256 12.0277 10.6797 13.203 11.5752 13.7979C11.2459 13.7874 10.9362 13.6973 10.665 13.5479C10.6429 14.4732 11.3113 15.3393 12.2786 15.5325C11.9959 15.6088 11.6855 15.6266 11.3701 15.5666C11.6258 16.3604 12.3702 16.9375 13.2493 16.9537C12.402 17.6128 11.3374 17.9074 10.2695 17.7824C11.1601 18.3498 12.2166 18.6801 13.3522 18.6801C17.0878 18.6801 19.1974 15.5463 19.0699 12.7355C19.4637 12.4546 19.8045 12.1024 20.0741 11.7014Z" fill="#40444D"/>
</g>
</svg>
